<svg id="Layer_1" data-name="Layer 1" xmlns="http://www.w3.org/2000/svg" viewBox="0 0 365.71 1514.8904">
  <defs>
    <style>
      .cls-1, .cls-2, .cls-3, .cls-4 {
        fill: #0799c5;
      }

      .cls-2 {
        opacity: 0.6;
      }

      .cls-3 {
        opacity: 0.8;
      }

      .cls-4 {
        opacity: 0.4;
      }
    </style>
  </defs>
  <title>BG_Wasser</title>
  <path class="cls-1" d="M361.45809,210.17363c-23.16766,0-34.93118-5.26873-46.30707-10.36442-11.6088-5.19886-22.57543-10.1099-45.12263-10.1099s-33.51214,4.911-45.12094,10.1099c-11.37588,5.09569-23.13937,10.36442-46.30375,10.36442-23.16771,0-34.93124-5.26873-46.30712-10.36442-11.6088-5.19886-22.57543-10.1099-45.12258-10.1099s-33.51214,4.911-45.12094,10.1099C30.67717,204.9049,18.91364,210.17363-4.2507,210.17363c-23.1677,0-34.93123-5.26873-46.30711-10.36442-8.04519-3.603-15.78533-7.06619-27.282-8.85381V1557.48178H436.7356V190.7089c-12.44176,1.70041-20.54011,5.32342-28.97371,9.10031C396.386,204.9049,384.62248,210.17363,361.45809,210.17363Z"/>
  <path class="cls-2" d="M-.84359,150.75876c21.87506,0,32.54222-4.7763,43.83661-9.83535,11.677-5.23045,23.75161-10.63893,47.58809-10.63893,23.83815,0,35.91273,5.40848,47.58977,10.63893,11.29434,5.05742,21.96323,9.83535,43.83992,9.83535,21.87506,0,32.54227-4.7763,43.83661-9.83535,11.677-5.23045,23.75162-10.63893,47.58809-10.63893,23.83815,0,35.91278,5.40848,47.58977,10.63893,11.29439,5.05742,21.96323,9.83535,43.84,9.83535,21.875,0,32.54222-4.7763,43.83661-9.83535,7.95908-3.5651,16.10651-7.21127,28.03375-9.17278V85.15239c-8.79588,1.919-15.3695,4.86-22.1595,7.90175-11.37589,5.09569-23.13942,10.36437-46.30376,10.36437-23.1677,0-34.93123-5.26868-46.30711-10.36437-11.6088-5.20053-22.57543-10.11158-45.12258-10.11158s-33.51214,4.91105-45.12094,10.11158c-11.37589,5.09569-23.13942,10.36437-46.30381,10.36437-23.1677,0-34.93118-5.26868-46.30707-10.36437C127.502,87.85361,116.53536,82.94256,93.98821,82.94256S60.47607,87.85361,48.86727,93.05414c-11.37589,5.09569-23.13942,10.36437-46.30376,10.36437-23.1677,0-34.93123-5.26868-46.30712-10.36437-9.53755-4.27263-18.64737-8.3474-34.0962-9.66636v47.65691c14.8155,1.66732,24.10742,5.82551,33.15625,9.87872C-33.38917,145.98083-22.72033,150.75876-.84359,150.75876Z"/>
  <path class="cls-3" d="M364.86524,159.93532c-23.83815,0-35.91278-5.40842-47.58977-10.63887-11.29439-5.05747-21.96323-9.8354-43.84-9.8354s-32.5439,4.77793-43.83824,9.8354c-11.677,5.23045-23.75,10.63887-47.58646,10.63887-23.83811,0-35.91273-5.40842-47.58977-10.63887-11.29434-5.05747-21.96323-9.8354-43.83992-9.8354s-32.5439,4.77793-43.83829,9.8354c-11.677,5.23045-23.74994,10.63887-47.58641,10.63887-23.83816,0-35.91278-5.40842-47.58977-10.63887-8.48331-3.79873-16.61455-7.43933-29.40645-9.01646v47.76549c12.24472,1.85951,20.45473,5.53141,28.46649,9.12019,11.6088,5.19885,22.57543,10.1099,45.12262,10.1099,22.54547,0,33.51047-4.911,45.11927-10.1099C52.24445,192.07,64.008,186.8013,87.174,186.8013c23.1677,0,34.93119,5.26867,46.30707,10.36437,11.60885,5.19885,22.57548,10.1099,45.12263,10.1099,22.54551,0,33.51046-4.911,45.11926-10.1099,11.37588-5.0957,23.13941-10.36437,46.30543-10.36437,23.16771,0,34.93124,5.26867,46.30712,10.36437,11.6088,5.19885,22.57543,10.1099,45.12258,10.1099,22.54551,0,33.51051-4.911,45.11931-10.1099,8.37535-3.75162,16.96694-7.5943,30.1582-9.36184v-46.7413c-9.95584,1.82152-16.99143,4.96844-24.284,8.23392C400.77466,154.5269,388.70171,159.93532,364.86524,159.93532Z"/>
  <path class="cls-4" d="M371.67945,53.18026c-23.83816,0-35.91278-5.40843-47.58977-10.63888-11.29439-5.05747-21.96323-9.8354-43.84-9.8354s-32.5439,4.77793-43.83825,9.8354c-11.677,5.23045-23.75,10.63888-47.58645,10.63888-23.83811,0-35.91273-5.40843-47.58977-10.63888C129.9409,37.48391,119.272,32.706,97.39531,32.706s-32.5439,4.77793-43.83829,9.8354C41.88,47.77183,29.80709,53.18026,5.97061,53.18026c-23.83815,0-35.91277-5.40843-47.58976-10.63888-8.48331-3.79873-16.61455-7.43933-29.40645-9.01646V81.29041c12.24472,1.85951,20.45472,5.53142,28.46649,9.12019,11.6088,5.19885,22.57543,10.1099,45.12262,10.1099,22.54547,0,33.51046-4.91105,45.11926-10.1099,11.37589-5.09569,23.13942-10.36437,46.30544-10.36437,23.1677,0,34.93118,5.26868,46.30707,10.36437,11.60885,5.19885,22.57548,10.1099,45.12262,10.1099,22.54552,0,33.51047-4.91105,45.11927-10.1099,11.37588-5.09569,23.13941-10.36437,46.30543-10.36437,23.1677,0,34.93123,5.26868,46.30712,10.36437,11.6088,5.19885,22.57543,10.1099,45.12258,10.1099,22.54551,0,33.51051-4.91105,45.11931-10.1099,8.37534-3.75162,16.96694-7.5943,30.1582-9.36184V34.30746c-9.95584,1.82152-16.99143,4.96844-24.284,8.23392C407.58886,47.77183,395.51592,53.18026,371.67945,53.18026Z"/>
</svg>
