<svg id="Layer_1" data-name="Layer 1" xmlns="http://www.w3.org/2000/svg" viewBox="0 0 425.19685 340.15748">
  <defs>
    <style>
      .cls-1 {
        fill: #036;
      }

      .cls-2 {
        fill: #6c0;
      }
    </style>
  </defs>
  <title>OMV_Village_2016_Visual</title>
  <g>
    <g>
      <g>
        <path class="cls-1" d="M386.1777,239.673a90.46962,90.46962,0,0,0,4.30207-11.26024c5.68652-18.49658,5.70313-38.69434.05176-60.03369-6.24219-23.56787-19.333-47.95948-38.9082-72.4961-33.58594-42.09814-69.0127-63.93945-105.2959-64.917-21.35676-.58376-42.52653,7.93562-52.38226,14.40678S175.82971,59.55226,170.91266,67.256c-3.08155,4.828-5.10329,7.81584-7.51242,11.92146q-3.62058,6.15843-6.95152,12.372t-6.49636,11.75135a84.28348,84.28348,0,0,1,.62067-9.71923q.62067-5.31018,1.47122-10.90541.84825-5.59293,1.92179-10.956,1.06893-5.36535,2.14706-9.88935,1.06893-4.5171,2.03212-7.79745a39.31463,39.31463,0,0,1,1.5264-4.5194,3.34126,3.34126,0,0,0,.28045-3.04818,3.28576,3.28576,0,0,0-1.92179-1.6965,4.72114,4.72114,0,0,0-2.87807,0,5.18152,5.18152,0,0,0-2.71257,1.92178,101.252,101.252,0,0,0-8.3078,13.218q-3.89643,7.3515-7.56759,14.85931-3.67575,7.517-7.232,14.68919a117.70841,117.70841,0,0,1-7.232,12.71224,43.75262,43.75262,0,0,1-7.5676,8.92386,12.47962,12.47962,0,0,1-8.3078,3.393,8.46231,8.46231,0,0,1-4.79986-1.18617,6.28466,6.28466,0,0,1-2.43211-2.93784,6.76335,6.76335,0,0,1-.33562-3.67345,6.9466,6.9466,0,0,1,1.52179-3.33323,6.67214,6.67214,0,0,1,2.99761-2.03672,5.76217,5.76217,0,0,1,4.06425.285,2.26919,2.26919,0,0,0,2.20683,0,2.104,2.104,0,0,0,.96089-1.58156,3.62373,3.62373,0,0,0-.51033-2.14706,4.34671,4.34671,0,0,0-2.09189-1.80684,16.209,16.209,0,0,0-4.29412-.7356,12.77624,12.77624,0,0,0-5.4803.90571,12.97422,12.97422,0,0,0-5.02514,3.61368q-2.262,2.54475-2.71257,7.40207a11.56962,11.56962,0,0,0,.846,5.48029,12.22635,12.22635,0,0,0,3.16312,4.40446,15.37388,15.37388,0,0,0,5.02974,2.93783,18.26293,18.26293,0,0,0,6.32625,1.07583,19.32391,19.32391,0,0,0,9.4342-2.37693,33.697,33.697,0,0,0,8.19287-6.38141,55.99839,55.99839,0,0,0,7.1768-9.43419q3.33093-5.42742,6.44119-11.4709,3.10335-6.04119,6.101-12.4272,2.993-6.37911,6.0458-12.372a83.23383,83.23383,0,0,0-3.27807,12.88235q-1.35858,7.45494-2.09189,14.91448-.73791,7.45493-.90112,13.7283a58.34729,58.34729,0,0,0,.28045,9.31925q.44826,3.05506,2.37234,3.72861,1.92408.67584,3.84357-2.48727,7.22737-11.8617,13.38811-23.27283c4.10563-7.609,8.20153-14.46488,12.0916-20.67981,5.49014-8.77128,12.73569-15.30736,22.26917-21.98724S225.84758,38.411,246.11258,38.96307c33.81543.91113,67.21,21.74024,99.25684,61.90918,18.87988,23.66406,31.47266,47.06592,37.42871,69.55518,5.2627,19.87158,5.27441,38.58935.03516,55.63476-8.24219,26.8125-29.7461,47.96631-57.52246,56.58643-55.41895,17.19824-95.749,18.32031-116.62842,3.24121-8.88621-6.41622-14.1716-17.866-15.66-25.45966-1.6094-8.21124-1.222-13.81957-3.18474-19.51357-2.74664-7.96809-3.93048-8.24965-11.2166-4.07535-1.152.66-1.013,1.93152-.49973,3.134a71.44785,71.44785,0,0,1,5.125,17.86867c2.125,13,10.07114,26.81894,20.75244,34.53223C215.2,300.465,230.61161,304.508,250.11649,304.507c21.11621-.001,47.0293-4.74121,77.56543-14.21778C353.99087,282.1244,375.15366,263.61241,386.1777,239.673Z"/>
        <path class="cls-1" d="M185.88234,103.07092a2.26918,2.26918,0,0,1,1.86661-1.07123,4.42466,4.42466,0,0,1,2.20224.45056,3.17046,3.17046,0,0,1,1.46662,1.41145,1.72127,1.72127,0,0,1-.33562,1.92178q-1.131,1.46892-2.99762,3.72862a63.062,63.062,0,0,1-4.91479,5.19984q-1.91719,1.80684-3.49875,3.04818a18.55075,18.55075,0,0,1-3.16773,2.03671,13.09,13.09,0,0,1-3.27346,1.12641,18.7528,18.7528,0,0,1-3.72863.34021q-5.76534,0-6.72624-4.6895-.95859-4.68261,3.67346-12.48237,1.02066-1.6965,2.14706-3.78839,1.131-2.08959,2.31717-4.124t2.25741-3.839q1.07583-1.80684,1.86661-3.05278a4.53759,4.53759,0,0,1,2.59763-2.03212,4.66806,4.66806,0,0,1,2.88267,0,3.66836,3.66836,0,0,1,1.977,1.52639,2.29089,2.29089,0,0,1-.22528,2.54245c-.83216,1.42984-1.77006,3.10335-2.8275,5.02513q-1.57926,2.88266-2.82291,5.14006c-.83216,1.508-1.63673,2.93784-2.42751,4.29412a35.12626,35.12626,0,0,0-1.92178,3.72862,17.39729,17.39729,0,0,0-1.01607,2.88267c-.1885.79078-.09654,1.33789.28046,1.63673a1.59545,1.59545,0,0,0,1.63673.28505,8.30725,8.30725,0,0,0,2.31717-1.07583,26.25231,26.25231,0,0,0,2.48729-1.80684,30.29,30.29,0,0,0,2.2574-2.03212q1.92408-2.03442,3.05278-3.22289A38.012,38.012,0,0,0,185.88234,103.07092Zm4.63435-25.19461a10.37059,10.37059,0,0,1-1.47122,1.80684,17.82681,17.82681,0,0,1-1.46663,1.35628,9.62868,9.62868,0,0,1-3.05278,1.24134,6.41737,6.41737,0,0,1-2.6528.11494,1.91634,1.91634,0,0,1-1.47122-1.131q-.39309-.90342.62067-2.48268c.22988-.45516.5655-1.03445,1.02066-1.75167q.67584-1.07583,1.24134-1.977a3.64461,3.64461,0,0,1,2.48729-1.64132,5.97227,5.97227,0,0,1,2.93784.17011,3.63177,3.63177,0,0,1,2.03213,1.58156A2.57953,2.57953,0,0,1,190.51669,77.87631Z"/>
        <path class="cls-1" d="M186.56278,100.92386a31.54461,31.54461,0,0,1,5.02514-6.60668,29.40226,29.40226,0,0,1,5.99063-4.68951,17.35181,17.35181,0,0,1,6.32625-2.262,11.97828,11.97828,0,0,1,5.93086.5655,3.93859,3.93859,0,0,1,2.76773,3.05278,8.62838,8.62838,0,0,1-.62067,4.34929,16.46086,16.46086,0,0,1-2.59762,4.40445,23.33065,23.33065,0,0,1-3.05279,3.22289,3.47264,3.47264,0,0,1-2.54245.90112,3.91633,3.91633,0,0,1-2.20223-.846,3.74175,3.74175,0,0,1-1.24135-1.75167,1.44647,1.44647,0,0,1,.45056-1.6919l1.92179-1.92178a19.96312,19.96312,0,0,0,1.92178-2.20223,4.46129,4.46129,0,0,0,.90112-1.81143c.07816-.48734-.26206-.731-1.01606-.731a5.34534,5.34534,0,0,0-2.59762.84595,16.17536,16.17536,0,0,0-3.05279,2.37234,33.932,33.932,0,0,0-3.16312,3.5585,37.8655,37.8655,0,0,0-2.93785,4.40906,9.15044,9.15044,0,0,0-1.41145,5.42052,5.173,5.173,0,0,0,1.97695,3.67345,6.56,6.56,0,0,0,4.51941,1.131,14.08633,14.08633,0,0,0,6.32625-2.31717,26.85666,26.85666,0,0,0,2.8275-1.92178q1.46893-1.1241,2.82291-2.37234,1.35858-1.24134,2.48728-2.42751a29.21355,29.21355,0,0,0,1.92178-2.20683,2.21888,2.21888,0,0,1,1.80685-1.07123,4.37771,4.37771,0,0,1,2.09189.39539,2.88718,2.88718,0,0,1,1.41145,1.41145,1.91706,1.91706,0,0,1-.22528,1.977,23.45886,23.45886,0,0,1-1.81144,2.31717c-.754.86894-1.61834,1.78845-2.59762,2.76773s-2.01374,1.95856-3.108,2.93784a42.83314,42.83314,0,0,1-3.33323,2.71256,19.84818,19.84818,0,0,1-6.72164,3.61368,21.52844,21.52844,0,0,1-6.49637.96088,15.1419,15.1419,0,0,1-5.42512-1.01606,8.14707,8.14707,0,0,1-3.50335-2.42751,9.68232,9.68232,0,0,1-1.862-3.89872,14.86557,14.86557,0,0,1-.34022-4.46423,21.79,21.79,0,0,1,.79078-4.40446A18.5578,18.5578,0,0,1,186.56278,100.92386Z"/>
        <path class="cls-1" d="M237.17738,102.96058a26.43034,26.43034,0,0,1-5.0849,3.89873,25.854,25.854,0,0,1-4.74469,2.14706,16.85561,16.85561,0,0,1-4.17919.846,24.1936,24.1936,0,0,1-3.27806,0,4.70489,4.70489,0,0,0,1.52639,2.993,6.31067,6.31067,0,0,0,3.27347,1.52639,12.42328,12.42328,0,0,0,4.5194-.17011,15.84361,15.84361,0,0,0,5.255-2.20223,23.06959,23.06959,0,0,0,2.76774-1.92178q1.41375-1.1241,2.76773-2.37234,1.35858-1.24134,2.54245-2.42751a14.71715,14.71715,0,0,0,1.86662-2.20683,2.26134,2.26134,0,0,1,1.862-1.07123,4.50648,4.50648,0,0,1,2.14706.39539,2.89628,2.89628,0,0,1,1.41605,1.41145,1.90846,1.90846,0,0,1-.22987,1.977,19.50585,19.50585,0,0,1-1.862,2.31717c-.79078.86894-1.65972,1.78845-2.59762,2.76773q-1.41375,1.46892-3.05279,2.93784-1.64133,1.46892-3.33323,2.71256a21.12852,21.12852,0,0,1-7.28714,3.67344,22.5391,22.5391,0,0,1-7.45726.84595,15.4317,15.4317,0,0,1-6.32625-1.69649,8.26226,8.26226,0,0,1-3.89873-4.06424,13.18119,13.18119,0,0,1-1.07583-7.29173,20.09048,20.09048,0,0,1,2.31717-7.06185,31.56258,31.56258,0,0,1,5.02974-6.60668,29.50482,29.50482,0,0,1,5.986-4.68951,17.4027,17.4027,0,0,1,6.33085-2.262,11.97829,11.97829,0,0,1,5.93086.5655,5.09749,5.09749,0,0,1,3.16312,3.05278,7.8782,7.8782,0,0,1,.17011,4.29411,14.09608,14.09608,0,0,1-1.80684,4.34929A15.8725,15.8725,0,0,1,237.17738,102.96058Zm-16.0455,1.24134a14.0425,14.0425,0,0,0,5.255-.846,14.57542,14.57542,0,0,0,5.255-3.33323,9.90841,9.90841,0,0,0,3.16312-4.85961q.44826-2.2551-1.80684-2.2574a5.331,5.331,0,0,0-2.59763.84595,15.88932,15.88932,0,0,0-3.05278,2.37234,32.92135,32.92135,0,0,0-3.16313,3.5585,36.73343,36.73343,0,0,0-2.93784,4.40906Z"/>
      </g>
      <g>
        <path class="cls-1" d="M278.49139,96.34067l-9.379,16.496c-.83216,1.508-1.63674,2.93784-2.42752,4.29412a35.12626,35.12626,0,0,0-1.92178,3.72862,17.39582,17.39582,0,0,0-1.01606,2.88266c-.1885.79078-.09655,1.33789.28045,1.63673a1.59545,1.59545,0,0,0,1.63673.28505,7.60862,7.60862,0,0,0,2.262-1.07583c.79078-.52412,1.59995-1.131,2.42751-1.80684s1.58156-1.35628,2.262-2.03212q2.03443-2.03442,3.16313-3.22288a38.01413,38.01413,0,0,0,2.59762-3.108,2.2692,2.2692,0,0,1,1.86662-1.07123,4.42462,4.42462,0,0,1,2.20223.45056,3.17046,3.17046,0,0,1,1.46662,1.41145,1.72127,1.72127,0,0,1-.33562,1.92178q-1.131,1.46892-3.05278,3.72862-1.92408,2.262-4.85963,5.19983-1.91718,1.80684-3.49875,3.04818a18.55054,18.55054,0,0,1-3.16772,2.03672,13.08989,13.08989,0,0,1-3.27347,1.1264,18.75193,18.75193,0,0,1-3.72862.34022q-5.76535,0-6.72624-4.68951-.95861-4.68261,3.67345-12.48236.5655-1.02066,1.6965-3.05278c.74941-1.35628,1.63674-2.89646,2.6528-4.63434q1.52409-2.593,3.22289-5.53546,1.68962-2.93784,3.27347-5.76073a15.83061,15.83061,0,0,1-1.91718.11034h-2.03673q-2.37234,0-3.04818-.9563a2.08879,2.08879,0,0,1-.11494-2.20682,5.6752,5.6752,0,0,1,2.03212-2.2574,6.3559,6.3559,0,0,1,3.27807-1.131h2.37234q1.46892,0,3.27807-.11494l2.48728-4.06424a4.53178,4.53178,0,0,1,2.59762-2.03672,4.91918,4.91918,0,0,1,2.93785,0,3.44127,3.44127,0,0,1,1.97695,1.52639,2.49976,2.49976,0,0,1-.17011,2.54245l-1.131,1.92178h3.16313a19.40588,19.40588,0,0,0,2.37694-.11494c1.1264,0,1.80684.32183,2.03212.96089a2.75831,2.75831,0,0,1-.22528,2.14706,7.072,7.072,0,0,1-1.80684,2.262,4.07161,4.07161,0,0,1-2.71257,1.07123Z"/>
        <path class="cls-1" d="M312.95015,114.41826a2.27548,2.27548,0,0,1,1.86661-1.07123,4.51713,4.51713,0,0,1,2.14707.39539,2.64289,2.64289,0,0,1,1.35628,1.41145,2.01364,2.01364,0,0,1-.28505,1.977,19.39194,19.39194,0,0,1-2.6528,3.05277,18.93579,18.93579,0,0,1-4.124,2.993,16.93825,16.93825,0,0,1-5.02974,1.80684,8.88864,8.88864,0,0,1-5.14008-.50573,27.06182,27.06182,0,0,1-7.28714,5.76074,16.80391,16.80391,0,0,1-7.96758,2.14706,9.30393,9.30393,0,0,1-5.08491-1.35628,8.51294,8.51294,0,0,1-3.2183-3.61368,12.39173,12.39173,0,0,1-1.07583-5.37,19.82742,19.82742,0,0,1,1.24594-6.60668,29.68573,29.68573,0,0,1,8.6986-12.03641,25.24436,25.24436,0,0,1,5.93086-3.66885,15.28469,15.28469,0,0,1,6.16074-1.35628,9.51485,9.51485,0,0,1,5.19525,1.35628,8.48451,8.48451,0,0,1,3.22289,3.66885,12.8341,12.8341,0,0,1,1.07123,5.42512,19.8199,19.8199,0,0,1-1.24134,6.61129c-.22528.60228-.45516,1.16778-.68044,1.6919a14.49414,14.49414,0,0,1-.79078,1.58156,7.13494,7.13494,0,0,0,3.89873-1.12641A13.33376,13.33376,0,0,0,312.95015,114.41826Zm-13.33294.5655q1.80684-3.9516.90572-6.72163a3.69642,3.69642,0,0,0-3.84357-2.76773,7.54636,7.54636,0,0,0-3.10335.73561,13.28015,13.28015,0,0,0-3.16773,2.03212,22.03506,22.03506,0,0,0-2.87807,2.993,14.00954,14.00954,0,0,0-2.14707,3.72862q-1.6965,3.9585-.79078,6.72622a3.69127,3.69127,0,0,0,3.839,2.76773,7.56628,7.56628,0,0,0,3.108-.73561,13.16611,13.16611,0,0,0,3.16312-2.03212,16.52436,16.52436,0,0,0,2.76774-3.05277A23.57808,23.57808,0,0,0,299.61721,114.98376Z"/>
      </g>
      <g>
        <path class="cls-1" d="M241.73858,146.88314a49.64392,49.64392,0,0,1-4.51941,6.72623,58.21616,58.21616,0,0,1-5.19525,5.70557,61.43429,61.43429,0,0,1-5.4803,4.6895q-2.77233,2.08959-5.14008,3.55851a14.16656,14.16656,0,0,0,.28045,4.68951,5.59388,5.59388,0,0,0,1.5264,2.87807,2.10107,2.10107,0,0,0,2.14706.28505,13.83875,13.83875,0,0,0,3.10795-1.30111,21.726,21.726,0,0,0,3.108-2.08729,10.62963,10.62963,0,0,0,2.14706-2.20683,2.26135,2.26135,0,0,1,1.862-1.07123,4.4143,4.4143,0,0,1,2.20223.45056,3.18147,3.18147,0,0,1,1.47122,1.41145,1.73139,1.73139,0,0,1-.34022,1.92178,29.36035,29.36035,0,0,1-2.993,3.27806,37.09394,37.09394,0,0,1-4.3493,3.61368,28.30477,28.30477,0,0,1-4.9148,2.8275,9.17546,9.17546,0,0,1-4.68952.90112,5.88309,5.88309,0,0,1-3.84356-1.75167q-1.46892-1.52409-1.6965-5.02513-1.9172,3.724-3.72863,7.23195-1.80684,3.50334-3.2183,6.2113c-.9425,1.81144-1.71489,3.33323-2.31717,4.57917a19.14312,19.14312,0,0,1-1.24134,2.31717,3.73824,3.73824,0,0,1-2.59763,1.91718,5.30939,5.30939,0,0,1-3.16772-.28045,4.28072,4.28072,0,0,1-2.20223-2.09189,3.67737,3.67737,0,0,1,.39539-3.50334q.79308-1.46892,2.88267-5.31018t4.79986-8.92385q2.71716-5.0895,5.82052-10.85024,3.10335-5.75844,5.87569-10.9008,2.76543-5.13777,4.9148-9.15374,2.14476-4.00677,3.05278-5.70557a17.70923,17.70923,0,0,1,4.40447-5.65039,17.30792,17.30792,0,0,1,5.14008-3.04818,8.798,8.798,0,0,1,4.74468-.45516,5.269,5.269,0,0,1,3.393,2.14706,7.12742,7.12742,0,0,1,.96089,4.68951A18.78322,18.78322,0,0,1,241.73858,146.88314Zm-9.71466-1.01606c-.15172.22528-.49194.86894-1.01606,1.92178-.52872,1.05744-1.11261,2.18384-1.75167,3.3884-.64366,1.20916-1.24595,2.33556-1.80685,3.393a19.731,19.731,0,0,0-.96089,1.91718,48.25373,48.25373,0,0,0,8.58366-10.956,15.27845,15.27845,0,0,0,1.86661-4.124c.1885-.9425.09195-1.416-.285-1.416s-.97928.47354-1.80684,1.416A23.22057,23.22057,0,0,0,232.02392,145.86708Z"/>
        <path class="cls-1" d="M265.24134,169.82035a2.26134,2.26134,0,0,1,1.862-1.07123,4.44224,4.44224,0,0,1,2.20683.45056,3.19224,3.19224,0,0,1,1.46662,1.41145,1.72326,1.72326,0,0,1-.34022,1.92178q-.5655.68274-1.52179,1.977-.96549,1.30341-2.20683,2.76773-1.24134,1.47582-2.708,3.05278a38.1052,38.1052,0,0,1-3.05278,2.93784,22.89384,22.89384,0,0,1-5.53547,3.72861,9.2692,9.2692,0,0,1-4.124.90572,5.17329,5.17329,0,0,1-2.99761-1.131,10.75332,10.75332,0,0,1-2.14247-2.37234q-.91032.5655-1.86661,1.18617a21.73764,21.73764,0,0,1-2.09189,1.18617,11.48853,11.48853,0,0,1-2.6528.90112,16.28409,16.28409,0,0,1-3.55851.34022q-5.76535,0-6.72624-4.6895-.95859-4.68262,3.67345-12.48237,1.02066-1.6965,2.14707-3.78839,1.131-2.08959,2.31717-4.124t2.2574-3.839q1.07583-1.80684,1.86662-3.05278a4.54736,4.54736,0,0,1,2.54245-2.03212,4.67442,4.67442,0,0,1,2.88267,0,3.43372,3.43372,0,0,1,1.977,1.52639,2.52163,2.52163,0,0,1-.17011,2.54245c-.83216,1.42984-1.77007,3.10335-2.82751,5.02512q-1.57926,2.88267-2.8229,5.14007c-.83216,1.508-1.63673,2.93784-2.42752,4.29412a35.12626,35.12626,0,0,0-1.92178,3.72862,17.3962,17.3962,0,0,0-1.01606,2.88267c-.1885.79078-.09655,1.33789.28045,1.63673q1.24134,1.02066,4.239-1.18617a33.55047,33.55047,0,0,0,6.38142-6.60669,35.66284,35.66284,0,0,0,2.8275-4.40906q1.57926-2.8206,3.04819-5.53546,1.6965-3.16541,3.50334-6.66645a4.06228,4.06228,0,0,1,2.20224-1.977,5.901,5.901,0,0,1,2.93784-.45516,3.331,3.331,0,0,1,2.20224,1.07583q.79308.90342-.11034,2.48728-.90344,1.80684-2.31718,4.45963-1.41375,2.662-2.88267,5.42511c-.97928,1.84822-1.90339,3.5769-2.76774,5.19984q-1.29651,2.42751-1.977,3.55851c-.45056.82756-.62067,1.41145-.50573,1.75167.11034.33562.40918.48734.90112.45056a4.86354,4.86354,0,0,0,1.80684-.62067,8.73982,8.73982,0,0,0,2.0919-1.58156q1.91718-2.03442,3.05278-3.22289A38.97519,38.97519,0,0,0,265.24134,169.82035Z"/>
        <path class="cls-1" d="M288.174,169.71a26.43034,26.43034,0,0,1-5.0849,3.89873,25.854,25.854,0,0,1-4.74469,2.14706,16.85561,16.85561,0,0,1-4.17919.846,24.1936,24.1936,0,0,1-3.27806,0,4.70489,4.70489,0,0,0,1.52639,2.993,6.31067,6.31067,0,0,0,3.27347,1.52639,12.42328,12.42328,0,0,0,4.5194-.17011,15.84361,15.84361,0,0,0,5.255-2.20223,23.06959,23.06959,0,0,0,2.76774-1.92178q1.41375-1.1241,2.76773-2.37234,1.35858-1.24134,2.54245-2.42751a14.71715,14.71715,0,0,0,1.86662-2.20683,2.26134,2.26134,0,0,1,1.862-1.07123,4.50648,4.50648,0,0,1,2.14706.39539,2.89628,2.89628,0,0,1,1.41605,1.41145,1.90846,1.90846,0,0,1-.22987,1.97695,19.50585,19.50585,0,0,1-1.862,2.31717c-.79078.86894-1.65972,1.78845-2.59762,2.76773q-1.41375,1.46892-3.05279,2.93784-1.64133,1.46892-3.33323,2.71256a21.12852,21.12852,0,0,1-7.28714,3.67344,22.5391,22.5391,0,0,1-7.45726.84595,15.4317,15.4317,0,0,1-6.32625-1.6965,8.26218,8.26218,0,0,1-3.89873-4.06424,13.18115,13.18115,0,0,1-1.07583-7.29172,20.09048,20.09048,0,0,1,2.31717-7.06185,31.5629,31.5629,0,0,1,5.02974-6.60669,29.50511,29.50511,0,0,1,5.986-4.6895,17.4027,17.4027,0,0,1,6.33085-2.262,11.97829,11.97829,0,0,1,5.93086.5655,5.09749,5.09749,0,0,1,3.16312,3.05278,7.8782,7.8782,0,0,1,.17011,4.29411,14.09608,14.09608,0,0,1-1.80684,4.34929A15.8725,15.8725,0,0,1,288.174,169.71Zm-16.0455,1.24134a14.0425,14.0425,0,0,0,5.255-.84595,14.57542,14.57542,0,0,0,5.255-3.33323,9.90841,9.90841,0,0,0,3.16312-4.85961q.44826-2.25512-1.80684-2.25741a5.33106,5.33106,0,0,0-2.59763.846,15.88884,15.88884,0,0,0-3.05278,2.37233,32.9215,32.9215,0,0,0-3.16313,3.55851,36.73343,36.73343,0,0,0-2.93784,4.40906Z"/>
        <path class="cls-1" d="M321.96151,154.6806q-2.94474,2.71026-6.27108,5.6504-3.33783,2.93783-6.27108,5.42511-3.50336,2.93784-6.89635,5.6458a12.04593,12.04593,0,0,0-.9563,4.40906,6.10975,6.10975,0,0,0,.90113,3.67345,3.42814,3.42814,0,0,0,2.93784,1.46662q1.97925.06206,5.02974-2.20223a37.59392,37.59392,0,0,0,4.79986-4.46423q2.31717-2.53785,3.89873-4.46423a2.26921,2.26921,0,0,1,1.86662-1.07123,4.13674,4.13674,0,0,1,2.14706.45056,3.24428,3.24428,0,0,1,1.41145,1.41145,1.73138,1.73138,0,0,1-.34022,1.92178c-.377.45516-.86894,1.11261-1.46662,1.977-.60688.86894-1.3195,1.793-2.14706,2.76773-.83216.98388-1.75168,1.99994-2.77234,3.05278-1.01606,1.05743-2.05051,2.03212-3.10335,2.93784a18.817,18.817,0,0,1-6.0458,3.78378,14.55669,14.55669,0,0,1-5.53547.96089,11.17268,11.17268,0,0,1-4.57918-1.131,8.91744,8.91744,0,0,1-3.16312-2.48268,8.58925,8.58925,0,0,1-1.75168-3.84355,14.38631,14.38631,0,0,1-.11034-4.40446,24.62625,24.62625,0,0,1,.96089-4.40906,31.952,31.952,0,0,1,1.58157-4.06884,93.48869,93.48869,0,0,1,7.00209-12.82258,104.7715,104.7715,0,0,1,8.19286-10.96058,79.08228,79.08228,0,0,1,8.47332-8.52846,36.06756,36.06756,0,0,1,7.85264-5.31018c1.81144-.90572,3.16312-1.26433,4.06885-1.07583s1.65512,1.00227,2.262,2.43211a8.662,8.662,0,0,1,.62067,4.124,15.00556,15.00556,0,0,1-1.52639,5.19523,35.4094,35.4094,0,0,1-4.06885,6.386A68.30985,68.30985,0,0,1,321.96151,154.6806ZM327.382,136.718a56.11615,56.11615,0,0,0-8.1331,7.45723,88.24885,88.24885,0,0,0-5.6504,7.00208,56.6425,56.6425,0,0,0-4.51941,7.232q5.53087-5.0826,9.71465-9.48936,1.80685-1.80684,3.44818-3.72862,1.63443-1.92408,2.88267-3.55851a17.70869,17.70869,0,0,0,1.862-2.93784A2.85181,2.85181,0,0,0,327.382,136.718Z"/>
      </g>
      <g>
        <path class="cls-1" d="M254.6513,221.78273a2.27548,2.27548,0,0,1,1.86661-1.07123,4.41431,4.41431,0,0,1,2.20224.45056,3.18147,3.18147,0,0,1,1.47122,1.41145,1.73139,1.73139,0,0,1-.34022,1.92178q-.5655.68272-1.52639,1.97695-.95859,1.3034-2.20224,2.82749-1.24824,1.52409-2.71256,3.04818-1.46892,1.52409-3.04819,2.88267a35.38467,35.38467,0,0,1-6.16073,3.78379q-3.55853,1.75167-7.17221,3.22289l-3.84356,7.117a17.28555,17.28555,0,0,1-7.00669,7.51241,15.75084,15.75084,0,0,1-7.79288,2.09189,8.52271,8.52271,0,0,1-5.82052-2.20223,5.00516,5.00516,0,0,1-1.18617-5.48029,10.13725,10.13725,0,0,1,2.76774-4.63433,17.118,17.118,0,0,1,4.46423-2.88267,43.65116,43.65116,0,0,1,5.87569-2.14246,73.5216,73.5216,0,0,0,7.117-2.54245l.67585-1.24594a13.48224,13.48224,0,0,1-3.16313,1.52639,14.50284,14.50284,0,0,1-4.62975.62067q-5.76534,0-6.72624-4.68951-.95859-4.68261,3.67346-12.48236.90342-1.6965,2.09189-3.78839,1.18617-2.08959,2.31717-4.124,1.12412-2.03442,2.20224-3.839c.71262-1.20456,1.33789-2.22062,1.862-3.05278a4.54656,4.54656,0,0,1,2.60222-2.03212,4.84819,4.84819,0,0,1,2.93785,0,3.43373,3.43373,0,0,1,1.97695,1.52639,2.52158,2.52158,0,0,1-.17011,2.54245c-.83216,1.42984-1.77006,3.10335-2.8275,5.02513q-1.57926,2.88267-2.82291,5.14007c-.83216,1.508-1.63673,2.93784-2.42751,4.29412a35.12715,35.12715,0,0,0-1.92178,3.72861,17.39729,17.39729,0,0,0-1.01607,2.88267c-.1885.79078-.09654,1.33789.28046,1.63673q.5655.45516,2.20223,0a14.80926,14.80926,0,0,0,3.55852-1.58156,26.62459,26.62459,0,0,0,3.72862-2.65279,11.1294,11.1294,0,0,0,2.71257-3.22288q.90342-1.68962,2.03672-4.00907,1.1241-2.31717,2.31257-4.68951,1.18618-2.37234,2.31718-4.57457,1.131-2.20683,1.92178-3.67345a4.43789,4.43789,0,0,1,2.37234-2.09189,6.11264,6.11264,0,0,1,2.993-.45056,3.00848,3.00848,0,0,1,2.14706,1.131c.49194.63906.43217,1.485-.17011,2.54245q-.90342,1.80684-2.37234,4.45963-1.46892,2.662-2.93785,5.36995-1.46892,2.71026-2.708,5.14007-1.24824,2.42751-1.92178,3.67344l-3.05279,5.76074a63.01969,63.01969,0,0,0,7.34691-5.76074q2.03442-1.92407,3.108-3.16312Q253.18238,223.70222,254.6513,221.78273Zm-27.11644,24.18315q-3.95162,1.57926-6.66647,2.87807-2.71027,1.3034-3.04819,2.65738a1.02714,1.02714,0,0,0,.5655,1.30111,3.01843,3.01843,0,0,0,2.03213.11034,8.26247,8.26247,0,0,0,2.8229-1.41145,11.05712,11.05712,0,0,0,2.93785-3.3884Z"/>
        <path class="cls-1" d="M289.225,221.78273a2.27548,2.27548,0,0,1,1.86661-1.07123,4.51713,4.51713,0,0,1,2.14707.39539,2.64289,2.64289,0,0,1,1.35628,1.41145,2.01364,2.01364,0,0,1-.28505,1.977,19.39246,19.39246,0,0,1-2.6528,3.05277,18.93579,18.93579,0,0,1-4.124,2.993,16.93825,16.93825,0,0,1-5.02974,1.80684,8.88864,8.88864,0,0,1-5.14008-.50573,27.06182,27.06182,0,0,1-7.28714,5.76074,16.80391,16.80391,0,0,1-7.96758,2.14706,9.30393,9.30393,0,0,1-5.08491-1.35628,8.51294,8.51294,0,0,1-3.2183-3.61368,12.39173,12.39173,0,0,1-1.07583-5.37,19.82742,19.82742,0,0,1,1.24594-6.60668,29.68573,29.68573,0,0,1,8.6986-12.03641,25.24436,25.24436,0,0,1,5.93086-3.66885,15.28468,15.28468,0,0,1,6.16073-1.35628,9.5148,9.5148,0,0,1,5.19525,1.35628,8.48447,8.48447,0,0,1,3.2229,3.66885,12.8341,12.8341,0,0,1,1.07123,5.42512,19.8199,19.8199,0,0,1-1.24134,6.61129c-.22528.60228-.45516,1.16778-.68044,1.6919a14.49414,14.49414,0,0,1-.79078,1.58156,7.13494,7.13494,0,0,0,3.89873-1.12641A13.3339,13.3339,0,0,0,289.225,221.78273Zm-13.33294.5655q1.80684-3.9516.90572-6.72163a3.69642,3.69642,0,0,0-3.84357-2.76773,7.54636,7.54636,0,0,0-3.10335.73561,13.28015,13.28015,0,0,0-3.16773,2.03212,22.03506,22.03506,0,0,0-2.87807,2.993,14.00954,14.00954,0,0,0-2.14707,3.72862q-1.6965,3.9585-.79078,6.72622a3.69127,3.69127,0,0,0,3.839,2.76773,7.5662,7.5662,0,0,0,3.10795-.73561,13.166,13.166,0,0,0,3.16313-2.03212,16.52436,16.52436,0,0,0,2.76774-3.05277A23.57887,23.57887,0,0,0,275.89206,222.34823Z"/>
        <path class="cls-1" d="M320.75051,221.78273a2.26135,2.26135,0,0,1,1.862-1.07123,4.44224,4.44224,0,0,1,2.20683.45056,3.19229,3.19229,0,0,1,1.46662,1.41145,1.72327,1.72327,0,0,1-.34022,1.92178q-.5655.68272-1.52179,1.97695-.96549,1.3034-2.20684,2.76772-1.24134,1.47582-2.708,3.05278a38.10189,38.10189,0,0,1-3.05279,2.93784,22.89343,22.89343,0,0,1-5.53547,3.72862,9.26916,9.26916,0,0,1-4.124.90572,5.17332,5.17332,0,0,1-2.99762-1.131,10.75326,10.75326,0,0,1-2.14246-2.37234q-.91032.5655-1.86661,1.18617a21.73663,21.73663,0,0,1-2.0919,1.18617,11.4886,11.4886,0,0,1-2.65279.90112,16.28418,16.28418,0,0,1-3.55852.34022q-5.76534,0-6.72624-4.68951-.95859-4.68261,3.67346-12.48236,1.02066-1.6965,2.14706-3.78839,1.131-2.08959,2.31718-4.124t2.2574-3.839q1.07583-1.80684,1.86661-3.05278a4.54734,4.54734,0,0,1,2.54246-2.03212,4.67457,4.67457,0,0,1,2.88267,0,3.4337,3.4337,0,0,1,1.97695,1.52639,2.52158,2.52158,0,0,1-.17011,2.54245c-.83216,1.42984-1.77006,3.10335-2.8275,5.02513q-1.57926,2.88267-2.82291,5.14007c-.83215,1.508-1.63673,2.93784-2.42751,4.29412a35.12715,35.12715,0,0,0-1.92178,3.72861,17.3962,17.3962,0,0,0-1.01606,2.88267c-.1885.79078-.09655,1.33789.28045,1.63673q1.24134,1.02066,4.23895-1.18617a33.54991,33.54991,0,0,0,6.38142-6.60669,35.66055,35.66055,0,0,0,2.82751-4.409q1.57926-2.8206,3.04818-5.53546,1.69652-3.16542,3.50335-6.66646a4.06222,4.06222,0,0,1,2.20223-1.977,5.90094,5.90094,0,0,1,2.93785-.45515,3.33088,3.33088,0,0,1,2.20223,1.07582q.79308.90342-.11034,2.48728-.90342,1.80684-2.31717,4.45963-1.41375,2.662-2.88268,5.42512c-.97928,1.84822-1.90339,3.5769-2.76773,5.19983q-1.29651,2.42751-1.977,3.55851c-.45057.82756-.62068,1.41145-.50574,1.75167.11034.33562.40919.48734.90113.45056a4.86354,4.86354,0,0,0,1.80684-.62067,8.73958,8.73958,0,0,0,2.09189-1.58156q1.91719-2.03442,3.05279-3.22288A38.9732,38.9732,0,0,0,320.75051,221.78273Z"/>
        <path class="cls-1" d="M331.37089,235.11564a10.18688,10.18688,0,0,1-1.46663,1.81144c-.60687.60228-1.09422,1.05284-1.47122,1.35628a9.64814,9.64814,0,0,1-3.04818,1.24134,6.50765,6.50765,0,0,1-2.6574.11034,1.90394,1.90394,0,0,1-1.46662-1.1264q-.4-.90342.62067-2.48728.33792-.67584,1.01606-1.75167c.45057-.71262.86435-1.37467,1.24135-1.97695a3.63856,3.63856,0,0,1,2.48728-1.63673,5.91989,5.91989,0,0,1,2.93784.16551,3.60439,3.60439,0,0,1,2.03213,1.58616A2.56179,2.56179,0,0,1,331.37089,235.11564Zm27.5716-48.01688a31.50793,31.50793,0,0,1-1.58156,2.76773q-1.46892,2.42751-3.67346,5.81591-2.19993,3.393-4.74468,7.29172-2.54476,3.89643-4.74469,7.28713-2.20683,3.3861-3.7884,5.6458-1.57926,2.262-1.6919,2.48728a7.661,7.661,0,0,1-2.54245,2.03672,5.16872,5.16872,0,0,1-2.43212.62067,1.67234,1.67234,0,0,1-1.46662-.85055c-.30344-.52412-.1885-1.35628.34022-2.48268q.44826-1.02066,1.862-3.67345,1.41375-2.65509,3.2229-6.04579,1.79994-3.3861,3.839-7.06184,2.03444-3.66885,3.72863-6.7768,1.6965-3.11025,2.8275-5.19984,1.12412-2.08959,1.24135-2.31717a5.38984,5.38984,0,0,1,2.54245-2.14706,8.48486,8.48486,0,0,1,3.50335-.79077,4.924,4.924,0,0,1,2.87807.79077A2.23133,2.23133,0,0,1,358.94249,187.09876Z"/>
      </g>
      <g>
        <path class="cls-1" d="M166.212,168.44829c-1.3754,2.14765-2.729,4.42721-4.25213,6.58725a4.30414,4.30414,0,0,0-.24572,5.1871c7.837,13.57125,15.8852,27.033,22.16183,41.439a4.58256,4.58256,0,0,0,1.75035,1.859c3.4424,2.4949,3.142,5.87787-.63673,7.67008-3.19133,1.51359-6.38839,3.02543-9.64774,4.38232-3.42355,1.42521-6.30112-.92228-5.74369-4.53884.16322-1.0591,1.4838-2.1331-.13711-3.19725-1.43426-.94163-2.72568-.53875-4.05434.11613a168.98073,168.98073,0,0,1-20.04205,8.68481c-3.88045,1.32362-7.73784,2.21369-11.984,1.36955-3.54624-.705-5.23892-3.06456-6.69007-5.78936a58.10576,58.10576,0,0,1-4.72866-13.74528c-1.33327-5.46847-2.53768-10.96846-3.88094-16.43439-.83882-3.41331-2.17189-6.526-5.86141-7.85842a3.6776,3.6776,0,0,1-1.87982-2.21079c-5.24785-10.98078-8.84541-22.60161-13.16834-33.94142-.504-1.32219.09077-2.393.62068-3.45513,2.01873-4.04634,4.14748-8.03833,6.12956-12.10211a1.95782,1.95782,0,0,1,2.94212-1.08344c3.94274,1.80958,7.7325.64389,11.57961-.40557,5.74925-1.56835,11.54313-2.97281,17.29529-4.531,1.74232-.472,3.167-.431,4.51495.97722,8.085,8.44657,16.22262,16.84284,24.32387,25.274C166.08962,164.27546,167.1779,166.0299,166.212,168.44829Zm-28.37093,59.21749a11.44,11.44,0,0,0,6.18025.55043c3.79137-.47821,7.20476-2.07469,10.60215-3.65478,8.92281-4.14984,10.8197-9.19947,6.79666-18.12213-2.44961-5.433-4.99585-10.82375-7.5814-16.19366-3.68363-7.65046-11.5076-11.35715-18.82606-9.00451-8.78966,2.82558-11.71943,8.13147-9.81427,18.04376,1.46294,7.61147,4.18211,14.86786,6.61938,22.19253A9.2821,9.2821,0,0,0,137.84108,227.66578Z"/>
        <path class="cls-1" d="M74.85454,143.29949c-2.34486-1.56614-5.21838-1.57663-8.27468-1.17752-5.57538.72808-11.18059,1.24589-16.783,1.74169-3.37262.29846-4.52838-.85056-5.00606-4.58694-.44879-3.51043.38029-4.96068,3.68888-5.36494,7.55314-.92287,15.12889-1.6687,22.70426-2.39478a8.10941,8.10941,0,0,1,4.19034.76075c7.492,3.50712,14.96167,7.06332,22.48859,10.49385,1.88142.85749,2.42354,1.5479,1.29907,3.63309-3.63181,6.73467-3.49035,6.71607-10.44977,3.25924C84.26888,147.45692,79.69578,145.51138,74.85454,143.29949Z"/>
        <path class="cls-1" d="M137.43754,191.45355a10.9158,10.9158,0,0,0-4.69841-.29534,6.00367,6.00367,0,0,1-3.57068-.27227c-.92449-.44938-1.82106-.93077-1.78089-2.12378.03581-1.06323.92529-1.49557,1.73564-1.78617a25.05656,25.05656,0,0,1,11.993-1.6424,6.6159,6.6159,0,0,1,4.94018,3.48761q7.27864,12.224,14.56608,24.44271a7.966,7.966,0,0,1,.98076,2.082c.33108,1.349.24451,2.853-1.07547,3.51757-1.32777.66844-1.84936-.82689-2.4721-1.63368-4.11282-5.32826-7.94823-10.8499-11.60392-16.50514C144.1202,197.11794,141.74262,193.47608,137.43754,191.45355Z"/>
      </g>
    </g>
    <g>
      <path class="cls-2" d="M236.96494,258.54452l1.211-.31051c.80881-.20792,1.97071-.48709,3.44186-.83432,2.94565-.68152,7.14576-1.624,12.17735-2.57767,2.51767-.50351,5.24023-.97088,8.1213-1.47189,2.88054-.49555,5.91361-.9447,9.05292-1.42249,3.13155-.39691,6.38015-.91244,9.6612-1.24377,3.28582-.37335,6.62507-.75336,9.94905-1.007q2.49606-.21122,4.98565-.42184,2.47708-.14479,4.92826-.28812c3.27175-.23,6.46513-.30563,9.55758-.3836,1.54427-.0304,3.074-.11109,4.55172-.09757l4.33374.02988q2.11314.015,4.10461.0292c1.32057.03022,2.58421.10919,3.80426.15821,2.436.1166,4.669.22351,6.64832.31823l5.06855.45285c2.81138.25226,4.41788.39643,4.41788.39643a2.88784,2.88784,0,0,1,2.50583,4.03359,5.083,5.083,0,0,1-4.98024,3.36179l-.0696-.0069-.18923-.02151-4.22863-.48148c-1.346-.15381-2.98049-.34061-4.85529-.55484-1.90387-.13635-4.05183-.29019-6.39509-.458-1.17482-.07522-2.39011-.18176-3.66408-.24093q-1.92082-.05814-3.96535-.12-2.04216-.06225-4.18952-.12774c-1.42881-.04728-2.91411-.00135-4.411-.00666-2.99856.00663-6.097.00714-9.28148.16007l-4.79565.17077q-2.42389.1508-4.86045.30234c-3.24082.17337-6.50286.4725-9.71486.7656-3.20652.251-6.38705.6871-9.45312,1.0065-3.074.40029-6.0471.77416-8.87071,1.19775-2.82418.429-5.49507.82806-7.96285,1.26764-4.935.82638-9.04875,1.65954-11.91986,2.2604-1.43749.30771-2.56075.55286-3.3094.72888l-1.17687.27567-.04294.01a2.02889,2.02889,0,0,1-2.726-1.808A3.32953,3.32953,0,0,1,236.96494,258.54452Z"/>
      <path class="cls-2" d="M56.46406,180.06962a83.05231,83.05231,0,0,1-11.30951-27.01977,5.07771,5.07771,0,0,0-.6073-1.8631c-.3241-.40723-.88007,1.14941-1.032,1.86694a79.60611,79.60611,0,0,1-11.18342,26.71423,26.331,26.331,0,0,0-2.37866,4.72181c-2.3294,6.02514-2.54345,12.09027.37055,17.97741a15.56843,15.56843,0,0,0,19.096,7.87043c8.12536-2.9303,10.87146-9.31409,10.889-17.12165C60.2779,188.20835,59.5456,185.02977,56.46406,180.06962ZM40.32691,205.3441a3.32289,3.32289,0,0,1-3.522-.80646A15.23685,15.23685,0,0,1,32.24946,193.474a24.31784,24.31784,0,0,1,1.17218-7.286,28.74538,28.74538,0,0,1,1.14679-3.08057c.10492-.23785.50909-.89825.54083-1.01172a23.64506,23.64506,0,0,0-.46234,10.45905,12.58138,12.58138,0,0,0,2.35345,5.53119,10.5288,10.5288,0,0,0,2.00739,1.9339,12.10315,12.10315,0,0,1,1.89349,1.2434A2.57805,2.57805,0,0,1,40.32691,205.3441Z"/>
    </g>
  </g>
</svg>
